<?xml version="1.0" encoding="utf-8"?>
<!-- Generator: Adobe Illustrator 19.0.0, SVG Export Plug-In . SVG Version: 6.00 Build 0)  -->
<svg version="1.1" id="Layer_1" xmlns="http://www.w3.org/2000/svg" xmlns:xlink="http://www.w3.org/1999/xlink" x="0px" y="0px"
	 viewBox="0 0 1024 100" enable-background="new 0 0 1024 100" xml:space="preserve">
<path id="XMLID_407_" fill-rule="evenodd" clip-rule="evenodd" fill="#323031" d="M108.7,39v36.8c0,2.8-2.3,5.1-5.1,5.1H32.8
	c-2.8,0-5.1-2.3-5.1-5.1V39c0.1,0.1,0.2,0.1,0.3,0.2l35.1,20.1c1.5,0.9,3.3,1.3,5,1.3c1.8,0,3.5-0.5,5-1.3l35.1-20.1
	C108.4,39.2,108.6,39.1,108.7,39L108.7,39z M68.2,55.6c0.9,0,1.7-0.2,2.5-0.7l35.2-20.1c1.6-0.8,2.8-2.5,2.8-4.5v-5.1
	c0-2.8-2.3-5.1-5.1-5.1H68.2H32.8c-2.8,0-5.1,2.3-5.1,5.1v5.1c0,2,1.1,3.7,2.8,4.5l35.2,20.1C66.5,55.4,67.3,55.6,68.2,55.6z"/>
<g id="XMLID_262_">
	<path id="XMLID_263_" fill="#323031" d="M183.2,72.1V21.6H219v9.5h-25v10.7h24.5v9.5H194v11.4h25v9.5H183.2z"/>
	<path id="XMLID_265_" fill="#323031" d="M272.5,72.1V49c0-3.4-1.5-5.8-5.5-5.8c-3.4,0-6.2,2.3-7.6,4.2v24.7h-9.7V49
		c0-3.4-1.5-5.8-5.5-5.8c-3.3,0-6.1,2.3-7.6,4.3v24.6h-9.6V35.5h9.6v4.8c1.5-2.2,6.4-5.7,12-5.7c5.4,0,8.8,2.5,10.1,6.7
		c2.1-3.3,7-6.7,12.6-6.7c6.7,0,10.8,3.6,10.8,11.1v26.4H272.5z"/>
	<path id="XMLID_267_" fill="#323031" d="M313.6,72.1v-3.8c-2.5,3-6.8,4.7-11.6,4.7c-5.8,0-12.7-3.9-12.7-12.1
		c0-8.6,6.9-11.8,12.7-11.8c4.8,0,9.2,1.6,11.6,4.5v-4.9c0-3.7-3.2-6.1-8-6.1c-3.9,0-7.6,1.4-10.7,4.3l-3.6-6.4
		c4.5-3.9,10.2-5.8,16-5.8c8.3,0,16,3.3,16,13.9v23.6H313.6z M313.6,63.3v-4.5c-1.6-2.1-4.6-3.2-7.7-3.2c-3.8,0-6.9,2-6.9,5.5
		c0,3.4,3.1,5.4,6.9,5.4C309,66.5,312,65.5,313.6,63.3z"/>
	<path id="XMLID_270_" fill="#323031" d="M331.8,25.9c0-3.2,2.6-5.7,5.8-5.7c3.2,0,5.8,2.5,5.8,5.7c0,3.2-2.6,5.8-5.8,5.8
		C334.4,31.6,331.8,29,331.8,25.9z M332.8,72.1V35.5h9.6v36.6H332.8z"/>
	<path id="XMLID_273_" fill="#323031" d="M351.9,72.1V21.6h9.6v50.5H351.9z"/>
</g>
<g id="XMLID_138_">
	<path id="XMLID_139_" fill="#323031" d="M738.2,70.7V35.3L724,70.7h-4.7l-14.2-35.4v35.4h-10.8V20.2h15.1l12.3,30.5l12.3-30.5h15.1
		v50.5H738.2z"/>
	<path id="XMLID_141_" fill="#323031" d="M756.5,52.4c0-10.6,7.8-19.2,18.9-19.2c10.9,0,18.3,8.2,18.3,20.1v2.1h-27.2
		c0.6,4.6,4.3,8.5,10.5,8.5c3.1,0,7.4-1.4,9.8-3.6l4.2,6.2c-3.6,3.3-9.4,5.1-15.1,5.1C764.9,71.6,756.5,64.1,756.5,52.4z
		 M775.4,40.8c-6,0-8.6,4.5-9,8.1h18C784.2,45.5,781.8,40.8,775.4,40.8z"/>
	<path id="XMLID_144_" fill="#323031" d="M797.5,65.9l4.2-6.7c2.6,2.5,8.1,5,12.6,5c4.2,0,6.1-1.7,6.1-3.9c0-6.1-21.7-1.1-21.7-15.5
		c0-6.1,5.4-11.5,15-11.5c6.2,0,11.1,2.1,14.8,5l-3.9,6.6c-2.2-2.3-6.4-4.2-10.8-4.2c-3.5,0-5.8,1.6-5.8,3.6
		c0,5.5,21.7,0.9,21.7,15.7c0,6.7-5.7,11.7-15.8,11.7C807.5,71.6,801.4,69.5,797.5,65.9z"/>
	<path id="XMLID_146_" fill="#323031" d="M833.6,65.9l4.2-6.7c2.6,2.5,8.1,5,12.6,5c4.2,0,6.1-1.7,6.1-3.9c0-6.1-21.7-1.1-21.7-15.5
		c0-6.1,5.4-11.5,15-11.5c6.2,0,11.1,2.1,14.8,5l-3.9,6.6c-2.2-2.3-6.4-4.2-10.8-4.2c-3.5,0-5.8,1.6-5.8,3.6
		c0,5.5,21.7,0.9,21.7,15.7c0,6.7-5.7,11.7-15.8,11.7C843.6,71.6,837.5,69.5,833.6,65.9z"/>
	<path id="XMLID_148_" fill="#323031" d="M894.9,70.7v-3.8c-2.5,3-6.8,4.7-11.6,4.7c-5.8,0-12.7-3.9-12.7-12.1
		c0-8.6,6.9-11.8,12.7-11.8c4.8,0,9.2,1.6,11.6,4.5v-4.9c0-3.7-3.2-6.1-8-6.1c-3.9,0-7.6,1.4-10.7,4.3l-3.6-6.4
		c4.5-3.9,10.2-5.8,16-5.8c8.3,0,16,3.3,16,13.9v23.6H894.9z M894.9,61.9v-4.5c-1.6-2.1-4.6-3.2-7.7-3.2c-3.8,0-6.9,2-6.9,5.5
		c0,3.4,3.1,5.4,6.9,5.4C890.3,65.1,893.3,64,894.9,61.9z"/>
	<path id="XMLID_151_" fill="#323031" d="M913.3,80.1l4.3-7c3,3.3,6.8,4.5,11.4,4.5c4.6,0,10.1-2,10.1-9.2v-3.7
		c-2.9,3.6-6.8,5.8-11.3,5.8c-9.2,0-16.1-6.4-16.1-18.6c0-12,6.9-18.6,16.1-18.6c4.4,0,8.3,1.9,11.3,5.6v-4.7h9.7v34.1
		c0,13.9-10.8,17.3-19.8,17.3C922.7,85.5,917.9,84.1,913.3,80.1z M939.1,57.7V45.9c-1.6-2.4-5.1-4.2-8.3-4.2
		c-5.5,0-9.2,3.8-9.2,10.1s3.8,10.1,9.2,10.1C934,61.9,937.5,60.1,939.1,57.7z"/>
	<path id="XMLID_154_" fill="#323031" d="M956,52.4c0-10.6,7.8-19.2,18.9-19.2c10.9,0,18.3,8.2,18.3,20.1v2.1H966
		c0.6,4.6,4.3,8.5,10.5,8.5c3.1,0,7.4-1.4,9.8-3.6l4.2,6.2c-3.6,3.3-9.4,5.1-15.1,5.1C964.4,71.6,956,64.1,956,52.4z M974.9,40.8
		c-6,0-8.6,4.5-9,8.1h18C983.7,45.5,981.3,40.8,974.9,40.8z"/>
</g>
</svg>
