<?xml version="1.0" encoding="utf-8"?>
<!-- Generator: Adobe Illustrator 19.0.0, SVG Export Plug-In . SVG Version: 6.00 Build 0)  -->
<svg version="1.1" id="Layer_1" xmlns="http://www.w3.org/2000/svg" xmlns:xlink="http://www.w3.org/1999/xlink" x="0px" y="0px"
	 viewBox="0 0 702.9 102.9" enable-background="new 0 0 702.9 102.9" xml:space="preserve">
<path id="XMLID_415_" fill-rule="evenodd" clip-rule="evenodd" fill="#F58A1F" d="M113.2,39.2v45.6c0,3.5-2.8,6.3-6.3,6.3H19
	c-3.5,0-6.3-2.8-6.3-6.3V39.2c0.1,0.1,0.3,0.2,0.4,0.2l43.6,24.9c1.9,1.1,4,1.7,6.2,1.7c2.2,0,4.3-0.6,6.2-1.7l43.6-24.9
	C112.9,39.4,113.1,39.3,113.2,39.2L113.2,39.2z M62.9,59.7c1.1,0,2.1-0.3,3.1-0.8l43.7-25c2-1,3.4-3.2,3.4-5.6v-6.3
	c0-3.5-2.8-6.3-6.3-6.3h-44H19c-3.5,0-6.3,2.8-6.3,6.3v6.3c0,2.4,1.4,4.6,3.4,5.6l43.7,25C60.8,59.5,61.9,59.7,62.9,59.7z"/>
<g id="XMLID_297_">
	<path id="XMLID_298_" fill="#323031" d="M139.1,76.1V32.2h9.4v43.9H139.1z"/>
	<path id="XMLID_300_" fill="#323031" d="M187.4,76.1l-20.9-28.6v28.6h-9.4V32.2h9.6l20.3,27.6V32.2h9.4v43.9H187.4z"/>
	<path id="XMLID_302_" fill="#323031" d="M205.2,76.1V32.2h23.1c8.4,0,12.6,5.3,12.6,11.2c0,5.5-3.4,9.2-7.6,10.1
		c4.7,0.7,8.4,5.3,8.4,10.8c0,6.6-4.4,11.9-12.8,11.9H205.2z M231.4,45c0-2.8-2-4.8-5.1-4.8h-11.7v9.5h11.7
		C229.4,49.7,231.4,47.8,231.4,45z M232.2,62.9c0-2.8-2-5.1-5.7-5.1h-12.1V68h12.1C230.1,68,232.2,66.1,232.2,62.9z"/>
	<path id="XMLID_306_" fill="#323031" d="M246.7,54.2c0-13.2,9.7-22.7,22.9-22.7c13.3,0,23,9.5,23,22.7s-9.7,22.7-23,22.7
		C256.4,76.9,246.7,67.4,246.7,54.2z M283,54.2c0-8.2-5.3-14.4-13.4-14.4c-8.1,0-13.3,6.2-13.3,14.4c0,8.2,5.2,14.4,13.3,14.4
		C277.7,68.6,283,62.3,283,54.2z"/>
	<path id="XMLID_309_" fill="#323031" d="M325.9,76.1l-11-16.1l-11.1,16.1h-11.1l15.9-22.5l-14.9-21.4h11.1l10.1,15l9.9-15h11.3
		l-14.9,21.3l15.9,22.6H325.9z"/>
	<path id="XMLID_311_" fill="#323031" d="M366,89.2c-5.9-8.1-9.3-18.5-9.3-29.1c0-10.6,3.4-20.9,9.3-29.1l3,2.2
		c-4.2,8.4-6.8,15.9-6.8,26.9c0,10.9,2.6,18.5,6.8,26.8L366,89.2z"/>
	<path id="XMLID_313_" fill="#323031" d="M381.9,76.1V39.4l-7,7.4l-3.3-3.4l11-11.3h4.8v43.9H381.9z"/>
	<path id="XMLID_315_" fill="#323031" d="M404.2,76.1V39.4l-7,7.4l-3.3-3.4l11-11.3h4.8v43.9H404.2z"/>
	<path id="XMLID_317_" fill="#323031" d="M437.8,76.1V65h-20.9v-4.5l18.8-28.3h7.5v28h6.2V65h-6.2v11.1H437.8z M437.8,37.2
		l-15.4,22.9h15.4V37.2z"/>
	<path id="XMLID_320_" fill="#323031" d="M473.7,59V32.2h5.5v26.7c0,8,4.3,13.1,12.4,13.1s12.4-5.1,12.4-13.1V32.2h5.5V59
		c0,10.9-6,17.9-17.9,17.9S473.7,69.8,473.7,59z"/>
	<path id="XMLID_322_" fill="#323031" d="M541.1,76.1V55.3c0-5.6-2.8-7.4-7.1-7.4c-3.9,0-7.6,2.4-9.4,4.9v23.2h-4.9V44.3h4.9v4.6
		c2.2-2.6,6.6-5.4,11.3-5.4c6.7,0,10.1,3.4,10.1,10.3v22.3H541.1z"/>
	<path id="XMLID_324_" fill="#323031" d="M555.9,76.1V44.3h4.9v5.1c2.6-3.4,6.3-5.8,10.6-5.8v5.1c-0.6-0.1-1.2-0.2-2-0.2
		c-3,0-7.2,2.5-8.6,5.1v22.5H555.9z"/>
	<path id="XMLID_326_" fill="#323031" d="M575.8,60.1c0-9.2,6.6-16.7,15.7-16.7c9.6,0,15.3,7.5,15.3,17.1v1.3H581
		c0.4,6,4.6,11,11.5,11c3.6,0,7.3-1.4,9.8-4l2.4,3.2c-3.2,3.2-7.4,4.9-12.6,4.9C582.6,76.9,575.8,70.1,575.8,60.1z M591.4,47.6
		c-6.8,0-10.1,5.7-10.4,10.6h20.9C601.8,53.4,598.6,47.6,591.4,47.6z"/>
	<path id="XMLID_329_" fill="#323031" d="M634.6,76.1v-3.6c-2.6,2.9-6.3,4.4-10.5,4.4c-5.4,0-11.1-3.6-11.1-10.5
		c0-7.1,5.7-10.5,11.1-10.5c4.3,0,8,1.4,10.5,4.3v-5.7c0-4.3-3.4-6.7-8-6.7c-3.8,0-6.9,1.4-9.7,4.4l-2.3-3.4
		c3.4-3.6,7.5-5.3,12.7-5.3c6.7,0,12.3,3,12.3,10.7v21.9H634.6z M634.6,69.4v-6c-1.9-2.6-5.3-4-8.8-4c-4.6,0-7.8,2.9-7.8,7
		c0,4,3.2,6.9,7.8,6.9C629.3,73.3,632.7,72,634.6,69.4z"/>
	<path id="XMLID_332_" fill="#323031" d="M672.4,76.1v-4.7c-2.4,3.2-6.3,5.5-10.7,5.5c-8.3,0-14.2-6.3-14.2-16.7
		c0-10.1,5.8-16.7,14.2-16.7c4.3,0,8.2,2.1,10.7,5.6V32.2h4.9v43.9H672.4z M672.4,67.5V53c-1.8-2.8-5.6-5.1-9.5-5.1
		c-6.4,0-10.2,5.3-10.2,12.3s3.8,12.2,10.2,12.2C666.8,72.5,670.7,70.2,672.4,67.5z"/>
	<path id="XMLID_335_" fill="#323031" d="M683.4,86.9c4.3-8.3,6.9-15.9,6.9-26.8c0-11-2.6-18.5-6.9-26.9l3-2.2
		c6,8.2,9.4,18.5,9.4,29.1c0,10.6-3.4,21-9.4,29.1L683.4,86.9z"/>
</g>
</svg>
