<?xml version="1.0" encoding="utf-8"?>
<!-- Generator: Adobe Illustrator 19.0.0, SVG Export Plug-In . SVG Version: 6.00 Build 0)  -->
<svg version="1.1" id="Layer_1" xmlns="http://www.w3.org/2000/svg" xmlns:xlink="http://www.w3.org/1999/xlink" x="0px" y="0px"
	 viewBox="0 0 969.1 64.7" enable-background="new 0 0 969.1 64.7" xml:space="preserve">
<path id="XMLID_437_" fill-rule="evenodd" clip-rule="evenodd" fill="#323031" d="M74.4,21.1v25.7c0,1.9-1.6,3.5-3.5,3.5H21.4
	c-1.9,0-3.5-1.6-3.5-3.5V21.1c0.1,0,0.2,0.1,0.2,0.1l24.5,14c1.1,0.6,2.3,0.9,3.5,0.9c1.2,0,2.4-0.3,3.5-0.9l24.5-14
	C74.3,21.2,74.4,21.1,74.4,21.1L74.4,21.1z M46.2,32.7c0.6,0,1.2-0.2,1.8-0.5l24.6-14.1c1.1-0.6,1.9-1.8,1.9-3.2v-3.5
	c0-2-1.6-3.5-3.5-3.5H46.2H21.4c-2,0-3.5,1.6-3.5,3.5V15c0,1.4,0.8,2.6,1.9,3.2l24.6,14.1C45,32.5,45.6,32.7,46.2,32.7z"/>
<g id="XMLID_275_">
	<path id="XMLID_276_" fill="#FFFFFF" d="M136.4,44.2V29.8L122.8,8.9h8.6l8.8,14.2l8.7-14.2h8.6L144,29.8v14.5H136.4z"/>
	<path id="XMLID_278_" fill="#FFFFFF" d="M152.4,31.4c0-7.3,5.1-13.4,13.5-13.4c8.5,0,13.6,6.1,13.6,13.4c0,7.3-5.1,13.4-13.6,13.4
		C157.5,44.9,152.4,38.7,152.4,31.4z M172.4,31.4c0-4-2.4-7.4-6.6-7.4c-4.2,0-6.5,3.4-6.5,7.4c0,4,2.3,7.5,6.5,7.5
		C170.1,38.9,172.4,35.4,172.4,31.4z"/>
	<path id="XMLID_281_" fill="#FFFFFF" d="M201.7,44.2V41c-1.7,2-4.8,3.9-9,3.9c-5.6,0-8.3-3.1-8.3-8V18.6h6.7v15.5
		c0,3.5,1.9,4.7,4.7,4.7c2.6,0,4.7-1.4,5.8-2.9V18.6h6.7v25.6H201.7z"/>
	<path id="XMLID_283_" fill="#FFFFFF" d="M215.1,44.2V18.6h6.7v3.5c1.8-2.3,5-4.1,8.2-4.1v6.6c-0.5-0.1-1.1-0.2-1.9-0.2
		c-2.2,0-5.2,1.3-6.3,2.9v16.9H215.1z"/>
	<path id="XMLID_285_" fill="#FFFFFF" d="M247.8,44.2V8.9h25v6.6h-17.5V23h17.1v6.6h-17.1v8h17.5v6.6H247.8z"/>
	<path id="XMLID_287_" fill="#FFFFFF" d="M310.2,44.2V28.1c0-2.4-1.1-4.1-3.8-4.1c-2.4,0-4.3,1.6-5.3,3v17.3h-6.8V28.1
		c0-2.4-1.1-4.1-3.8-4.1c-2.3,0-4.3,1.6-5.3,3v17.2h-6.7V18.6h6.7V22c1.1-1.5,4.4-4,8.4-4c3.8,0,6.1,1.7,7.1,4.7
		c1.5-2.3,4.9-4.7,8.8-4.7c4.7,0,7.5,2.5,7.5,7.7v18.5H310.2z"/>
	<path id="XMLID_289_" fill="#FFFFFF" d="M339,44.2v-2.6c-1.7,2.1-4.8,3.3-8.1,3.3c-4.1,0-8.9-2.8-8.9-8.5c0-6,4.8-8.3,8.9-8.3
		c3.4,0,6.4,1.1,8.1,3.1v-3.4c0-2.6-2.2-4.3-5.6-4.3c-2.8,0-5.3,1-7.5,3l-2.5-4.5c3.1-2.8,7.1-4,11.2-4c5.8,0,11.2,2.3,11.2,9.7
		v16.5H339z M339,38.1v-3.2c-1.1-1.5-3.2-2.2-5.4-2.2c-2.6,0-4.8,1.4-4.8,3.9c0,2.4,2.2,3.8,4.8,3.8C335.8,40.3,337.9,39.6,339,38.1
		z"/>
	<path id="XMLID_292_" fill="#FFFFFF" d="M351.7,11.9c0-2.2,1.9-4,4-4c2.2,0,4,1.7,4,4c0,2.2-1.8,4-4,4
		C353.5,15.9,351.7,14.1,351.7,11.9z M352.4,44.2V18.6h6.7v25.6H352.4z"/>
	<path id="XMLID_295_" fill="#FFFFFF" d="M365.8,44.2V8.9h6.7v35.3H365.8z"/>
</g>
<g id="XMLID_157_">
	<path id="XMLID_158_" fill="#FFFFFF" d="M493.8,44.2V29.8L480.2,8.9h8.6l8.8,14.2l8.7-14.2h8.6l-13.5,20.9v14.5H493.8z"/>
	<path id="XMLID_160_" fill="#FFFFFF" d="M509.7,31.4c0-7.3,5.1-13.4,13.5-13.4c8.5,0,13.6,6.1,13.6,13.4c0,7.3-5.1,13.4-13.6,13.4
		C514.8,44.9,509.7,38.7,509.7,31.4z M529.8,31.4c0-4-2.4-7.4-6.6-7.4c-4.2,0-6.5,3.4-6.5,7.4c0,4,2.3,7.5,6.5,7.5
		C527.4,38.9,529.8,35.4,529.8,31.4z"/>
	<path id="XMLID_163_" fill="#FFFFFF" d="M559,44.2V41c-1.7,2-4.8,3.9-9,3.9c-5.6,0-8.3-3.1-8.3-8V18.6h6.7v15.5
		c0,3.5,1.9,4.7,4.7,4.7c2.6,0,4.7-1.4,5.8-2.9V18.6h6.7v25.6H559z"/>
	<path id="XMLID_165_" fill="#FFFFFF" d="M572.4,44.2V18.6h6.7v3.5c1.8-2.3,5-4.1,8.2-4.1v6.6c-0.5-0.1-1.1-0.2-1.9-0.2
		c-2.2,0-5.2,1.3-6.3,2.9v16.9H572.4z"/>
	<path id="XMLID_167_" fill="#FFFFFF" d="M605.2,44.2V8.9h25v6.6h-17.5V23h17.1v6.6h-17.1v8h17.5v6.6H605.2z"/>
	<path id="XMLID_169_" fill="#FFFFFF" d="M667.6,44.2V28.1c0-2.4-1.1-4.1-3.8-4.1c-2.4,0-4.3,1.6-5.3,3v17.3h-6.8V28.1
		c0-2.4-1.1-4.1-3.8-4.1c-2.3,0-4.3,1.6-5.3,3v17.2h-6.7V18.6h6.7V22c1.1-1.5,4.4-4,8.4-4c3.8,0,6.1,1.7,7.1,4.7
		c1.5-2.3,4.9-4.7,8.8-4.7c4.7,0,7.5,2.5,7.5,7.7v18.5H667.6z"/>
	<path id="XMLID_171_" fill="#FFFFFF" d="M696.4,44.2v-2.6c-1.7,2.1-4.8,3.3-8.1,3.3c-4.1,0-8.9-2.8-8.9-8.5c0-6,4.8-8.3,8.9-8.3
		c3.4,0,6.4,1.1,8.1,3.1v-3.4c0-2.6-2.2-4.3-5.6-4.3c-2.8,0-5.3,1-7.5,3l-2.5-4.5c3.1-2.8,7.1-4,11.2-4c5.8,0,11.2,2.3,11.2,9.7
		v16.5H696.4z M696.4,38.1v-3.2c-1.1-1.5-3.2-2.2-5.4-2.2c-2.6,0-4.8,1.4-4.8,3.9c0,2.4,2.2,3.8,4.8,3.8
		C693.1,40.3,695.2,39.6,696.4,38.1z"/>
	<path id="XMLID_174_" fill="#FFFFFF" d="M709.1,11.9c0-2.2,1.9-4,4-4c2.2,0,4,1.7,4,4c0,2.2-1.8,4-4,4
		C710.9,15.9,709.1,14.1,709.1,11.9z M709.7,44.2V18.6h6.7v25.6H709.7z"/>
	<path id="XMLID_177_" fill="#FFFFFF" d="M723.1,44.2V8.9h6.7v35.3H723.1z"/>
	<path id="XMLID_179_" fill="#FFFFFF" d="M781,44.2V19.5l-10,24.7h-3.3l-10-24.7v24.7h-7.5V8.9h10.5l8.6,21.3l8.6-21.3h10.6v35.3
		H781z"/>
	<path id="XMLID_181_" fill="#FFFFFF" d="M793.7,31.4c0-7.4,5.5-13.4,13.2-13.4c7.6,0,12.8,5.7,12.8,14.1v1.5h-19
		c0.4,3.2,3,5.9,7.4,5.9c2.2,0,5.2-1,6.8-2.5l3,4.3c-2.5,2.3-6.6,3.5-10.5,3.5C799.6,44.9,793.7,39.6,793.7,31.4z M806.9,23.4
		c-4.2,0-6,3.1-6.3,5.7h12.6C813.1,26.6,811.4,23.4,806.9,23.4z"/>
	<path id="XMLID_184_" fill="#FFFFFF" d="M822.4,40.9l2.9-4.7c1.9,1.7,5.7,3.5,8.8,3.5c2.9,0,4.3-1.2,4.3-2.8
		c0-4.2-15.2-0.8-15.2-10.9c0-4.3,3.8-8,10.5-8c4.3,0,7.8,1.5,10.3,3.5l-2.7,4.6c-1.5-1.6-4.4-3-7.6-3c-2.4,0-4,1.1-4,2.5
		c0,3.8,15.1,0.6,15.1,11c0,4.7-4,8.2-11.1,8.2C829.4,44.9,825.1,43.4,822.4,40.9z"/>
	<path id="XMLID_186_" fill="#FFFFFF" d="M847.7,40.9l2.9-4.7c1.9,1.7,5.7,3.5,8.8,3.5c2.9,0,4.3-1.2,4.3-2.8
		c0-4.2-15.2-0.8-15.2-10.9c0-4.3,3.8-8,10.5-8c4.3,0,7.8,1.5,10.3,3.5l-2.7,4.6c-1.5-1.6-4.4-3-7.6-3c-2.4,0-4,1.1-4,2.5
		c0,3.8,15.1,0.6,15.1,11c0,4.7-4,8.2-11.1,8.2C854.6,44.9,850.4,43.4,847.7,40.9z"/>
	<path id="XMLID_188_" fill="#FFFFFF" d="M890.5,44.2v-2.6c-1.7,2.1-4.8,3.3-8.1,3.3c-4.1,0-8.9-2.8-8.9-8.5c0-6,4.8-8.3,8.9-8.3
		c3.4,0,6.4,1.1,8.1,3.1v-3.4c0-2.6-2.2-4.3-5.6-4.3c-2.8,0-5.3,1-7.5,3l-2.5-4.5c3.1-2.8,7.1-4,11.2-4c5.8,0,11.2,2.3,11.2,9.7
		v16.5H890.5z M890.5,38.1v-3.2c-1.1-1.5-3.2-2.2-5.4-2.2c-2.6,0-4.8,1.4-4.8,3.9c0,2.4,2.2,3.8,4.8,3.8
		C887.3,40.3,889.4,39.6,890.5,38.1z"/>
	<path id="XMLID_191_" fill="#FFFFFF" d="M903.3,50.8l3-4.9c2.1,2.3,4.8,3.2,8,3.2c3.2,0,7-1.4,7-6.5V40c-2,2.5-4.8,4-7.9,4
		c-6.4,0-11.3-4.5-11.3-13c0-8.4,4.8-13,11.3-13c3.1,0,5.8,1.3,7.9,3.9v-3.3h6.8v23.8c0,9.7-7.5,12.1-13.8,12.1
		C910,54.6,906.6,53.6,903.3,50.8z M921.4,35.2v-8.3c-1.1-1.7-3.5-2.9-5.8-2.9c-3.8,0-6.5,2.6-6.5,7s2.6,7,6.5,7
		C917.9,38.1,920.3,36.8,921.4,35.2z"/>
	<path id="XMLID_194_" fill="#FFFFFF" d="M933.2,31.4c0-7.4,5.5-13.4,13.2-13.4c7.6,0,12.8,5.7,12.8,14.1v1.5h-19
		c0.4,3.2,3,5.9,7.4,5.9c2.2,0,5.2-1,6.8-2.5l3,4.3c-2.5,2.3-6.6,3.5-10.5,3.5C939.1,44.9,933.2,39.6,933.2,31.4z M946.4,23.4
		c-4.2,0-6,3.1-6.3,5.7h12.6C952.6,26.6,950.9,23.4,946.4,23.4z"/>
</g>
</svg>
